<?xml version="1.0" encoding="utf-8"?>
<!-- Generator: Adobe Illustrator 15.0.0, SVG Export Plug-In . SVG Version: 6.00 Build 0)  -->
<!DOCTYPE svg PUBLIC "-//W3C//DTD SVG 1.1//EN" "http://www.w3.org/Graphics/SVG/1.1/DTD/svg11.dtd">
<svg version="1.1" id="Layer_1" xmlns="http://www.w3.org/2000/svg" xmlns:xlink="http://www.w3.org/1999/xlink" x="0px" y="0px"
	 width="207.082px" height="172.158px" viewBox="0 0 207.082 172.158" enable-background="new 0 0 207.082 172.158"
	 xml:space="preserve">
<g>
	<defs>
		<rect id="SVGID_1_" width="207.082" height="172.158"/>
	</defs>
	<clipPath id="SVGID_2_">
		<use xlink:href="#SVGID_1_"  overflow="visible"/>
	</clipPath>
	<path clip-path="url(#SVGID_2_)" fill="#BF9C54" d="M165.939,10.746c-0.52-4.874,6.588-9.604,15.861-10.573
		c9.279-0.964,17.222,2.207,17.735,7.081c0.521,4.879-6.575,9.609-15.861,10.573C174.401,18.79,166.46,15.62,165.939,10.746"/>
	<path clip-path="url(#SVGID_2_)" fill="#BF9C54" d="M129.055,37.233c-2.641,23.479-28.309,18.977-28.309,18.977l6.975-36.319
		l10.221,0.169C132.185,20.387,129.055,37.233,129.055,37.233 M60.169,23.176c0,0-0.161,5.428-5.931,6.415H39.501l1.98-11.025
		l14.401,0.005C55.883,18.571,60.338,18.402,60.169,23.176 M52.62,44.01c0,0,5.015-0.205,4.829,5.586c0,0-0.185,6.59-6.691,7.785
		l-16.619-0.006l2.231-13.371L52.62,44.01z M176.06,64.175l17.257-31.538c3.025-8.229-4.182-8.124-4.182-8.124
		c-10.773-3.623-36.388,6.083-36.388,6.083c2.634-29.457-23.372-30.228-23.372-30.228L102.55,0.362
		C90.789,0.85,86.829,12.591,86.829,12.591l-5.764,31.705l-1.529-0.166c-3.579-9.773-8.01-10.118-8.01-10.118
		c12.181-6.841,11.285-18.953,11.285-18.953C83.109,0.222,64.96,0.217,64.96,0.217H37.02C23.051,1.11,19.77,14.156,19.77,14.156
		L7.61,75.656l42.018,0.24c18.746-0.16,27.317-15.526,27.317-15.526l-3.391,15.292l43.16,0.222
		c32.429-5.921,35.209-39.799,35.209-39.799l11.102-3.293c5.495-1.808,2.476,2.14,2.476,2.14l-17.304,32.417
		c-4.455,8.29,3.294,9.277,3.294,9.277c18.524,2.528,47.104-10.968,47.104-10.968l-3.789-3.457l-14.402,4.445
		C172.818,68.12,176.06,64.175,176.06,64.175"/>
	<path clip-path="url(#SVGID_2_)" fill="#BF9C54" d="M45.783,172.152c2.373,0,5.156-1.438,5.156-5.151
		c0-3.918-2.887-5.156-5.156-5.156H28.972c-4.634,0-5.668-0.31-7.732-4.537l-8.76-17.842c-1.238-2.47-2.164-4.222-2.164-7.118
		c0-3.189,0.824-5.046,2.164-7.831l8.971-17.941c1.956-3.918,2.68-4.327,7.115-4.327h17.217c2.373,0,5.156-1.447,5.156-5.162
		c0-3.913-2.887-5.15-5.156-5.15H28.258c-7.944,0-12.375,2.778-15.885,9.898l-9.485,19.067C0.827,125.035,0,127.815,0,132.348
		c0,4.029,1.034,7.329,2.786,10.833l9.484,19.179c3.302,6.704,7.732,9.793,15.473,9.793H45.783z"/>
	<path clip-path="url(#SVGID_2_)" fill="#BF9C54" d="M87.608,132.353c0,2.682-0.622,4.538-1.752,6.805l-9.905,19.592
		c-0.718,1.443-1.439,3.09-3.504,3.09c-2.064,0-2.779-1.646-3.504-3.09l-9.898-19.592c-1.136-2.267-1.758-4.123-1.758-6.805
		c0-3.403,0.826-5.366,2.374-8.356l9.282-18.664c0.825-1.641,1.341-3.089,3.504-3.089c2.164,0,2.678,1.448,3.504,3.089l9.283,18.664
		C86.781,126.986,87.608,128.949,87.608,132.353 M97.916,132.353c0-4.432-0.722-7.422-2.678-11.445l-10.316-20.517
		c-2.471-4.847-6.698-8.456-12.475-8.456c-5.769,0-9.998,3.609-12.473,8.456l-10.31,20.517c-1.963,4.023-2.684,7.014-2.684,11.445
		c0,4.953,1.337,8.042,3.402,12.271l9.489,18.968c2.471,4.952,6.597,8.567,12.576,8.567c5.981,0,10.107-3.615,12.582-8.567
		l9.485-18.968C96.578,140.395,97.916,137.306,97.916,132.353"/>
	<path clip-path="url(#SVGID_2_)" fill="#BF9C54" d="M138.76,132.453c0,2.581-0.828,4.333-1.962,6.704l-9.075,18.354
		c-1.857,3.813-2.884,4.327-7.218,4.327h-1.962v-59.596h1.237c4.742,0,5.671-0.101,7.843,4.327l8.556,17.426
		C137.621,126.986,138.76,128.949,138.76,132.453 M149.068,132.353c0-4.741-1.028-7.731-3.096-11.96l-9.075-18.149
		c-3.505-7.008-7.522-10.309-15.563-10.309h-17.229c-3.191,0-5.976,1.438-5.976,5.151c0,3.924,2.887,5.157,6.293,5.157h3.812v59.596
		h-4.951c-2.678,0-5.154,1.448-5.154,5.157c0,3.714,2.476,5.162,5.154,5.162h17.122c8.042,0,12.679-2.377,16.288-9.694l9.385-18.764
		C147.929,139.986,149.068,136.482,149.068,132.353"/>
	<path clip-path="url(#SVGID_2_)" fill="#BF9C54" d="M166.453,161.839V137.2h15.16c2.681,0,5.156-1.442,5.156-5.156
		s-2.476-5.151-5.156-5.151h-15.16v-24.644h35.472c2.681,0,5.157-1.449,5.157-5.157c0-3.714-2.477-5.157-5.157-5.157h-45.779v80.218
		h45.779c2.681,0,5.157-1.442,5.157-5.15c0-3.715-2.477-5.163-5.157-5.163H166.453z"/>
</g>
</svg>
